<svg version="1.1" id="Layer_1" xmlns="http://www.w3.org/2000/svg" xmlns:xlink="http://www.w3.org/1999/xlink" x="0px" y="0px"
	 width="100%" viewBox="0 0 1024 1024" enable-background="new 0 0 1024 1024" xml:space="preserve">
<path fill="#000000" opacity="1.000000" stroke="none" 
	d="
M481.984497,397.895172 
	C488.953888,394.176300 496.038757,391.720184 503.175629,389.440308 
	C505.322052,388.754608 508.051819,387.026276 509.300507,390.919678 
	C511.209137,396.870789 510.520111,400.255463 506.725952,401.427032 
	C493.678253,405.455994 481.771057,411.605682 471.119385,420.156189 
	C466.577698,423.802002 462.539856,427.950195 458.749847,432.307495 
	C460.106018,435.165253 462.431610,436.596741 464.415802,438.290497 
	C481.140350,452.567413 497.772797,466.958557 514.762634,480.914032 
	C519.215393,484.571564 521.142029,488.687317 521.316528,494.089417 
	C521.348022,495.061981 521.561157,496.028625 522.304688,497.339111 
	C521.223022,491.094177 526.044434,489.042969 529.500061,486.055939 
	C565.545837,454.898560 601.591858,423.741425 637.663757,392.614410 
	C638.984253,391.474945 639.994995,389.712097 642.105469,389.765045 
	C644.866333,396.566376 643.693665,401.509857 638.461365,406.028351 
	C599.637573,439.555481 560.795715,473.061829 522.078247,506.711304 
	C518.412598,509.897156 516.041443,510.275116 512.088928,506.886658 
	C476.674622,476.526550 441.063354,446.396149 405.495758,416.214966 
	C404.140930,415.065308 402.977448,413.544861 400.911163,413.325806 
	C399.624603,414.959991 400.225159,416.851349 400.224213,418.588531 
	C400.195099,472.406494 400.422424,526.226135 400.005066,580.040894 
	C399.933655,589.246094 403.162048,596.080933 409.063354,602.271423 
	C411.418213,604.741638 414.146881,606.855530 416.315338,610.017273 
	C400.310913,611.096680 384.714081,611.365723 369.050446,610.736694 
	C368.955261,607.732178 371.067566,607.157654 372.220856,605.906067 
	C379.387024,598.129333 384.880859,590.548340 384.729584,578.469666 
	C384.039154,523.330017 384.594452,468.175140 384.616577,413.025726 
	C384.619537,405.629822 387.008392,397.394409 377.674896,392.650360 
	C377.966522,392.331757 378.258148,392.013123 378.549774,391.694489 
	C382.917969,391.500031 387.343689,391.687042 391.643524,391.038818 
	C404.037140,389.170380 413.716553,393.452545 422.351654,402.332123 
	C429.058838,409.229218 436.990906,414.924255 444.239777,421.311127 
	C446.984253,423.729279 448.893433,424.127625 451.658875,421.083496 
	C460.246948,411.629822 470.481018,404.208282 481.984497,397.895172 
z"/>
<path fill="#000000" opacity="1.000000" stroke="none" 
	d="
M598.434937,489.447632 
	C570.643433,513.479553 543.113953,537.274292 515.387390,561.239380 
	C512.193115,553.901062 513.286133,549.030334 518.709106,544.339172 
	C558.516724,509.903412 598.330200,475.474396 638.149963,441.052704 
	C639.260803,440.092438 640.198975,438.820282 641.995483,438.669647 
	C644.180542,440.199738 643.216614,442.571625 643.219177,444.545105 
	C643.277649,489.358826 643.319458,534.172852 643.172913,578.986145 
	C643.157288,583.752747 644.344604,587.686218 647.124207,591.471741 
	C651.480225,597.403870 656.151123,603.009338 661.705872,607.860413 
	C662.643860,608.679626 664.107056,609.142578 664.102661,611.531921 
	C642.685730,610.879456 621.298279,612.755432 599.843018,611.528687 
	C599.993225,609.108643 601.218323,608.411804 602.182129,607.532471 
	C603.411682,606.410522 604.718994,605.367126 605.886963,604.185303 
	C615.624695,594.331787 621.686401,583.761597 621.025635,568.593506 
	C619.736206,538.996338 620.682556,509.302612 620.643311,479.648956 
	C620.639893,477.052277 621.173767,474.348969 619.656372,471.255646 
	C612.534912,477.356201 605.615906,483.283356 598.434937,489.447632 
z"/>
<path fill="#000000" opacity="1.000000" stroke="none" 
	d="
M511.227631,314.389526 
	C514.439087,298.722382 517.528687,283.463104 520.896973,266.827576 
	C523.607605,271.943420 523.780823,276.202118 524.613770,280.237122 
	C528.544006,299.277893 532.379272,318.338440 536.205322,337.400604 
	C537.880920,345.749207 535.674622,353.945618 534.875793,362.159454 
	C532.558228,385.988129 529.852417,409.778809 527.341492,433.588928 
	C525.911987,447.144226 524.567688,460.708527 523.174683,474.267700 
	C523.107178,474.925354 522.958496,475.585999 521.695129,475.818237 
	C519.921570,472.682037 520.292847,468.962585 519.907715,465.561371 
	C517.215515,441.781769 514.528381,418.005157 511.440460,394.270325 
	C509.252686,377.454102 507.256592,360.590454 505.991211,343.686890 
	C505.423828,336.107422 508.629883,328.695679 509.843689,321.157104 
	C510.187012,319.024750 510.680908,316.916595 511.227631,314.389526 
z"/>
<path fill="#000000" opacity="1.000000" stroke="none" 
	d="
M456.106598,579.900696 
	C417.387085,543.104370 415.306885,488.097778 429.370911,458.223419 
	C433.141510,459.425018 435.537781,462.482330 438.260040,465.014526 
	C439.758118,466.408020 438.605896,468.171051 438.166168,469.716400 
	C424.469330,517.851379 446.457092,567.726196 491.582855,589.019043 
	C522.008301,603.375427 552.548096,602.110474 582.424927,586.621704 
	C590.861755,582.247864 592.755859,582.531250 599.520325,590.012451 
	C568.185608,616.390503 502.156647,623.931030 456.106598,579.900696 
z"/>
<path fill="#000000" opacity="1.000000" stroke="none" 
	d="
M216.171524,699.624268 
	C213.660355,701.995239 205.584503,702.880371 203.504684,701.427246 
	C201.710022,700.173401 201.975479,698.210571 201.967896,696.419922 
	C201.925583,686.422241 201.920746,676.424255 201.943939,666.426514 
	C201.951508,663.168762 202.357529,660.014832 197.331329,660.158875 
	C191.578995,660.323730 189.250549,661.626892 189.118729,666.442749 
	C188.913651,673.935547 189.048615,681.437683 189.039978,688.935852 
	C189.038437,690.268921 189.043228,691.601929 189.038513,692.934998 
	C189.006210,702.061035 186.623383,703.894653 177.598557,702.002869 
	C175.283203,701.517517 174.685837,700.184143 174.687454,698.116272 
	C174.700150,681.953247 174.707611,665.790100 174.667297,649.627197 
	C174.660431,646.869324 175.960480,645.451172 178.612213,645.798218 
	C189.446991,647.216187 200.522446,643.788147 211.234421,647.455078 
	C212.586487,647.917908 213.850616,647.487671 215.132263,647.081055 
	C220.814423,645.278442 226.675537,645.513611 232.486786,645.860352 
	C239.485764,646.278015 243.768158,650.234192 243.950653,657.295898 
	C244.299225,670.783386 244.068802,684.285522 244.096710,697.781616 
	C244.102631,700.643616 242.811035,702.134216 239.868378,702.073669 
	C238.369644,702.042847 236.858780,701.970947 235.371948,702.112427 
	C230.985718,702.530029 229.556732,700.553894 229.656494,696.260925 
	C229.884872,686.435181 229.720734,676.600220 229.715927,666.769043 
	C229.714310,663.476746 230.520004,659.947632 225.033646,660.154968 
	C218.830765,660.389343 216.492798,661.832886 216.389801,667.177246 
	C216.242126,674.839600 216.339478,682.506531 216.320999,690.171509 
	C216.313766,693.170288 216.276138,696.169006 216.171524,699.624268 
z"/>
<path fill="#000000" opacity="1.000000" stroke="none" 
	d="
M457.316803,701.335205 
	C455.257416,700.616211 453.730682,699.516785 451.727325,700.363281 
	C446.010223,702.778870 439.946381,702.256531 433.986023,702.062195 
	C427.314789,701.844666 422.993378,698.371643 422.461182,691.920654 
	C421.283844,677.649719 422.026398,663.319458 421.984955,649.013672 
	C421.978485,646.777527 423.292725,645.717468 425.507172,645.751770 
	C425.673309,645.754333 425.840210,645.746155 426.005951,645.732849 
	C436.235870,644.911560 436.322388,644.989929 436.320984,655.183044 
	C436.319794,663.838867 436.332703,672.494751 436.305969,681.150513 
	C436.295502,684.538818 435.758789,687.948120 441.100250,687.757080 
	C446.706573,687.556580 449.506500,685.829834 449.627563,681.009888 
	C449.815613,673.523926 449.691406,666.029968 449.698395,658.539429 
	C449.699921,656.874878 449.695587,655.210266 449.695648,653.545715 
	C449.695923,645.697388 449.696198,645.697388 457.666565,645.723511 
	C463.903076,645.743958 464.121002,645.922974 464.141998,652.160156 
	C464.174500,661.814575 464.134888,671.469116 464.158020,681.123535 
	C464.165802,684.375366 463.316833,688.002380 468.828125,687.753174 
	C474.628265,687.490906 476.875763,686.032837 476.956940,680.768982 
	C477.098053,671.616028 477.000824,662.459351 477.010101,653.304260 
	C477.011475,651.973206 477.030640,650.641602 477.074036,649.311279 
	C477.152985,646.890259 478.352692,645.632080 480.842834,645.741577 
	C481.174866,645.756226 481.508728,645.741577 481.841309,645.728943 
	C491.367126,645.366394 491.370422,645.366089 491.367767,654.975647 
	C491.365295,663.797852 491.367676,672.620178 491.344208,681.442322 
	C491.315002,692.428711 484.910553,700.224487 474.072418,701.778442 
	C468.668549,702.553223 463.131744,702.695984 457.316803,701.335205 
z"/>
<path fill="#000000" opacity="1.000000" stroke="none" 
	d="
M693.888855,646.242920 
	C705.595947,645.297852 716.920837,645.545532 728.217407,645.922302 
	C735.021729,646.149170 739.981934,651.560120 740.168213,658.421326 
	C740.443665,668.569031 740.454346,678.732666 740.233032,688.882019 
	C740.067139,696.492676 735.002014,701.717285 727.233032,701.995361 
	C717.257812,702.352356 707.252808,702.333374 697.275085,702.019165 
	C689.419922,701.771790 684.393250,696.697937 684.059692,688.509705 
	C683.660278,678.705200 683.731262,668.867065 684.006836,659.054871 
	C684.180847,652.858948 687.290588,648.333984 693.888855,646.242920 
M698.320251,664.847900 
	C698.321228,670.838135 698.436584,676.831482 698.278076,682.817444 
	C698.190918,686.107361 699.182678,687.797729 702.764587,687.715759 
	C709.084351,687.571045 715.411072,687.578613 721.731750,687.696289 
	C724.812439,687.753601 725.810120,686.377686 725.764709,683.474243 
	C725.666016,677.152954 725.684204,670.827637 725.791199,664.506287 
	C725.839722,661.640503 724.893127,660.178528 721.792480,660.229492 
	C715.304932,660.336365 708.813843,660.301453 702.325195,660.229797 
	C699.700806,660.200867 698.139893,661.069275 698.320251,664.847900 
z"/>
<path fill="#000000" opacity="1.000000" stroke="none" 
	d="
M263.195068,702.118958 
	C251.150650,701.838013 246.692093,697.359314 246.664108,685.944763 
	C246.642456,677.116699 246.576675,668.287720 246.672043,659.460693 
	C246.760941,651.232544 251.810806,645.951782 260.006378,645.786011 
	C269.663391,645.590698 279.330109,645.592651 288.987335,645.780457 
	C297.369537,645.943481 302.184631,650.988342 302.374115,659.332153 
	C302.570587,667.985352 302.874969,676.639160 302.880371,685.292786 
	C302.887726,697.049133 297.780121,702.089783 286.154846,702.123291 
	C278.659302,702.144836 271.163666,702.121643 263.195068,702.118958 
M288.059692,665.729248 
	C288.489685,661.743408 286.955139,659.969421 282.708466,660.178833 
	C277.074615,660.456787 271.413055,660.357544 265.769989,660.193115 
	C262.423798,660.095703 260.879425,661.247803 260.967407,664.759094 
	C261.121307,670.901428 261.130981,677.052307 260.994690,683.195068 
	C260.916382,686.724609 262.507294,687.827759 265.831207,687.736328 
	C271.640656,687.576477 277.461090,687.566956 283.270142,687.732300 
	C286.662354,687.828796 288.125336,686.574890 288.046478,683.117493 
	C287.921478,677.639160 288.043152,672.155273 288.059692,665.729248 
z"/>
<path fill="#000000" opacity="1.000000" stroke="none" 
	d="
M636.406860,702.051392 
	C633.005859,701.607849 632.817261,699.391052 632.920349,697.154602 
	C633.063538,694.047729 632.367126,691.885742 628.608337,692.143433 
	C625.584412,692.350708 624.464844,690.712463 624.631348,687.828857 
	C624.746277,685.838318 624.710999,683.833862 624.640503,681.839233 
	C624.548889,679.247437 625.448181,677.549133 628.315308,677.787109 
	C632.311279,678.118835 632.983215,675.880920 632.920959,672.541382 
	C632.787659,665.387451 633.048340,658.223938 632.821167,651.074707 
	C632.687988,646.883118 634.348877,645.520386 638.411682,645.663696 
	C645.226868,645.903992 652.057129,645.677002 658.880188,645.740723 
	C668.373230,645.829468 675.543091,650.173096 680.112427,658.340210 
	C684.718384,666.572571 683.680603,674.749695 678.286621,682.281494 
	C676.394470,684.923401 675.815186,687.240601 677.659607,689.984253 
	C677.842896,690.256958 677.953125,690.580933 678.082703,690.887207 
	C682.260193,700.764771 680.639465,702.963928 669.982056,702.171265 
	C667.448914,701.982910 666.264954,701.040283 665.530457,698.495544 
	C663.966980,693.078674 653.134766,689.521912 648.530090,692.651306 
	C647.201050,693.554565 647.187439,694.967529 647.360413,696.241638 
	C648.069885,701.465088 645.247131,702.596741 640.850037,702.149536 
	C639.531006,702.015442 638.189331,702.104614 636.406860,702.051392 
M648.493469,660.844116 
	C646.772217,662.440186 647.363098,664.548645 647.341125,666.466675 
	C647.199646,678.803894 647.686646,679.211060 660.079285,677.651672 
	C664.732239,677.066162 667.974365,673.524963 668.011353,668.987915 
	C668.049500,664.305969 665.064087,660.799927 660.167664,660.409668 
	C656.558228,660.122009 652.901062,660.433167 648.493469,660.844116 
z"/>
<path fill="#000000" opacity="1.000000" stroke="none" 
	d="
M546.215576,686.994141 
	C546.214478,690.655090 546.045959,693.828003 546.249329,696.976807 
	C546.505981,700.951721 544.690491,702.445435 540.920105,702.166443 
	C539.596375,702.068542 538.250305,702.069641 536.928528,702.185791 
	C533.110840,702.521118 531.231140,700.964966 531.709717,697.018738 
	C532.166687,693.251038 530.386536,691.871765 526.785950,692.185486 
	C525.134827,692.329346 523.446106,692.331177 521.797913,692.164795 
	C517.303223,691.711121 514.234985,692.609253 514.847717,698.179016 
	C515.130615,700.750305 513.693115,702.204163 510.939972,702.134033 
	C508.944550,702.083191 506.942993,702.080566 504.949890,702.175964 
	C501.635590,702.334534 499.923798,701.085144 500.258942,697.510803 
	C500.504486,694.891907 500.206970,692.626282 496.815033,691.921753 
	C494.191406,691.376831 494.571960,688.811035 494.780304,686.929932 
	C495.184204,683.283325 492.507874,678.157166 499.186768,677.205200 
	C500.422455,677.029114 500.523224,675.437439 500.545410,674.249939 
	C500.582733,672.253296 500.572540,670.255859 500.599304,668.258911 
	C500.788879,654.094666 509.882660,644.695801 523.400879,644.687134 
	C536.473206,644.678772 546.054382,654.670349 546.195435,668.520813 
	C546.256409,674.511719 546.210693,680.503784 546.215576,686.994141 
M514.962097,674.158752 
	C515.005981,676.597595 516.228516,677.942810 518.681641,677.671875 
	C522.842224,677.212280 527.260620,679.106873 531.141418,676.378357 
	C531.545715,676.093994 531.621399,675.158142 531.627197,674.522644 
	C531.652710,671.713745 531.878418,668.866211 531.505188,666.103699 
	C530.930176,661.846802 527.418640,659.122986 523.163147,659.153442 
	C518.764160,659.184937 515.735291,661.795654 515.165039,666.332703 
	C514.877869,668.617371 514.992920,670.952576 514.962097,674.158752 
z"/>
<path fill="#000000" opacity="1.000000" stroke="none" 
	d="
M411.135559,702.138184 
	C406.431213,702.582153 404.364807,700.816833 404.818512,696.424927 
	C405.165344,693.067688 403.380798,691.987305 400.304688,692.186829 
	C398.645752,692.294434 396.964264,692.302795 395.308716,692.165527 
	C390.817963,691.793335 387.232361,692.198975 388.001648,698.284851 
	C388.340973,700.969177 386.491577,702.121094 383.904968,702.106201 
	C382.072296,702.095703 380.235840,702.048889 378.407440,702.142517 
	C375.056030,702.314087 373.434570,700.922852 373.673462,697.438721 
	C373.847931,694.893921 373.966949,692.323242 370.277222,692.006592 
	C368.450562,691.849854 367.717010,690.244446 367.971039,688.692200 
	C368.653503,684.521667 365.043701,678.708008 372.640961,677.008423 
	C374.425415,676.609192 373.692169,673.721558 373.650696,671.963928 
	C373.494904,665.364929 373.971954,659.041382 378.328094,653.519653 
	C384.259186,646.001587 393.875977,642.703613 402.878601,645.432434 
	C412.042969,648.210327 418.797821,656.057800 419.144379,665.460693 
	C419.543121,676.277710 419.291412,687.119446 419.279785,697.950439 
	C419.273315,703.955750 414.615845,701.578674 411.135559,702.138184 
M404.820862,668.779114 
	C404.419220,662.165344 401.481140,658.927673 396.080078,659.147095 
	C390.909546,659.357178 388.289124,662.632446 388.123627,669.093567 
	C388.115112,669.425354 388.116364,669.757446 388.112671,670.089355 
	C388.027954,677.735291 388.027954,677.735291 395.685760,677.742615 
	C404.828857,677.751343 404.828857,677.751343 404.820862,668.779114 
z"/>
<path fill="#000000" opacity="1.000000" stroke="none" 
	d="
M824.896240,645.737122 
	C838.675659,645.841431 847.714600,652.218445 850.464905,663.434326 
	C853.977173,677.757507 843.636536,691.328918 828.565979,692.154175 
	C827.238831,692.226868 825.900146,692.249939 824.574768,692.167969 
	C819.662476,691.864319 814.948914,691.613708 815.900818,698.962402 
	C816.150635,700.891113 814.585571,701.906433 812.666565,701.984802 
	C810.673218,702.066040 808.672424,701.994446 806.681885,702.109924 
	C803.158875,702.314270 801.256226,700.956543 801.700073,697.195618 
	C802.117371,693.660645 800.817200,691.817139 797.007080,692.127991 
	C793.699463,692.397766 792.616272,690.505127 792.767029,687.481201 
	C792.857971,685.655579 792.851318,683.819641 792.780090,681.992615 
	C792.667480,679.105347 793.876099,677.499878 796.878723,677.770691 
	C801.115662,678.152771 801.817322,675.794434 801.730713,672.240356 
	C801.564575,665.423462 801.965759,658.584106 801.591064,651.783875 
	C801.316589,646.802063 803.296753,645.403259 807.946838,645.670349 
	C813.418701,645.984558 818.922668,645.739868 824.896240,645.737122 
M822.576660,677.747314 
	C824.570557,677.723267 826.576599,677.831787 828.555908,677.649109 
	C833.502625,677.192505 836.840820,673.467896 836.734741,668.695129 
	C836.634644,664.188416 833.336914,660.830444 828.497009,660.307068 
	C816.151306,658.971863 816.016479,659.094299 816.107849,671.553650 
	C816.109070,671.719849 816.127014,671.888489 816.105591,672.051819 
	C815.547424,676.309326 817.210266,678.392578 822.576660,677.747314 
z"/>
<path fill="#000000" opacity="1.000000" stroke="none" 
	d="
M331.437469,675.306885 
	C342.761627,670.066895 349.219513,661.575073 350.668884,649.504089 
	C350.998627,646.757446 352.238403,645.897766 354.823608,645.707092 
	C365.539703,644.916931 366.494751,645.937073 364.074493,656.545532 
	C362.649139,662.793274 360.070923,668.601501 356.100250,673.611938 
	C353.801819,676.512268 353.434998,678.633484 355.827454,681.799133 
	C359.163574,686.213379 360.766785,691.491943 361.730865,697.011963 
	C362.418640,700.949829 360.990295,702.271484 357.339020,702.141663 
	C355.509186,702.076599 353.674438,702.093262 351.843292,702.134521 
	C349.309662,702.191650 347.738037,701.265808 347.485992,698.498962 
	C347.367096,697.193726 346.885193,695.904297 346.451630,694.647766 
	C344.053192,687.696472 342.100128,686.779968 335.170654,689.249390 
	C333.917328,689.696167 332.661377,690.246887 331.361542,690.430786 
	C327.690063,690.950195 326.288055,692.819885 326.867584,696.560547 
	C327.480469,700.516479 325.711182,702.246155 321.504730,702.213867 
	C313.951965,702.156067 313.865845,702.368530 312.589172,695.165283 
	C312.166718,692.781677 310.799744,692.146484 308.767426,692.215698 
	C305.520569,692.326294 304.246094,690.818604 304.582031,687.619934 
	C304.772552,685.805847 304.743073,683.954651 304.652130,682.128235 
	C304.511047,679.296021 305.515137,677.592102 308.595459,677.747192 
	C312.091217,677.923096 312.676239,675.821228 312.647675,672.937988 
	C312.575165,665.609985 312.776398,658.276917 312.577698,650.953674 
	C312.473969,647.131104 313.731567,645.278198 317.716034,645.710938 
	C318.868347,645.836060 320.061646,645.853027 321.208954,645.706482 
	C325.697296,645.133484 327.069061,647.352356 326.977936,651.502930 
	C326.824432,658.494812 326.988556,665.493103 326.941345,672.488159 
	C326.920410,675.588379 327.940887,676.964478 331.437469,675.306885 
z"/>
<path fill="#000000" opacity="1.000000" stroke="none" 
	d="
M584.792480,701.854492 
	C578.145996,700.048035 574.789368,695.852417 574.401428,689.534485 
	C573.779053,679.399292 573.600891,669.231201 574.486145,659.110779 
	C575.211609,650.817627 579.352051,646.466736 587.444336,646.087830 
	C597.412231,645.621094 607.416626,645.935364 617.405212,645.903320 
	C620.059631,645.894775 621.151428,647.108032 621.351135,649.843323 
	C622.112366,660.263977 622.127380,660.329163 611.562439,660.330933 
	C605.402039,660.331970 599.241699,660.348755 593.081299,660.338867 
	C590.857422,660.335327 589.041199,660.846375 588.980896,663.537781 
	C588.835632,670.021912 588.701843,676.506531 588.617676,682.991699 
	C588.571655,686.533936 590.309265,688.184204 593.916870,687.774048 
	C594.902954,687.661987 595.912903,687.760315 596.911865,687.760803 
	C606.440735,687.765442 606.540161,687.768616 606.844666,678.439758 
	C606.951538,675.165649 607.930298,673.317505 611.489990,673.687988 
	C611.819153,673.722290 612.155518,673.690063 612.488464,673.684570 
	C621.292847,673.538879 621.298462,673.538757 621.308777,682.146423 
	C621.315186,687.474365 621.226257,692.803650 621.325806,698.129639 
	C621.381592,701.112366 620.123352,702.323181 617.156494,702.278137 
	C606.507324,702.116516 595.856567,702.062622 584.792480,701.854492 
z"/>
<path fill="#000000" opacity="1.000000" stroke="none" 
	d="
M772.592712,687.690063 
	C777.261536,688.010254 777.499695,685.016602 777.522644,682.088440 
	C777.600830,672.094299 777.509827,662.098572 777.637451,652.105408 
	C777.664673,649.972717 776.492310,646.791687 779.597107,646.127197 
	C783.096252,645.378296 786.896118,644.961426 790.353516,646.540161 
	C791.687561,647.149353 791.300659,648.906006 791.322449,650.206787 
	C791.519897,662.022949 791.412292,673.837097 791.801636,685.659180 
	C792.176880,697.053101 786.690857,702.060486 775.295227,702.115845 
	C769.298462,702.145020 763.300781,702.184753 757.304810,702.112061 
	C747.403625,701.992065 742.040100,696.793335 741.941528,687.033569 
	C741.822021,675.207581 742.042480,663.376587 741.805969,651.553955 
	C741.712830,646.895996 743.494080,645.130188 747.988037,645.702271 
	C749.135437,645.848389 750.326172,645.817444 751.481689,645.707336 
	C755.195801,645.353638 756.430542,647.050354 756.375977,650.674927 
	C756.220520,661.000488 756.502197,671.334229 756.247253,681.655823 
	C756.136719,686.128967 757.421326,688.188538 762.156555,687.755615 
	C765.460632,687.453613 768.814392,687.695801 772.592712,687.690063 
z"/>
<path fill="#000000" opacity="1.000000" stroke="none" 
	d="
M478.385895,395.021912 
	C470.797852,400.084869 463.682983,405.157166 456.169312,411.986847 
	C451.878723,385.501465 447.806732,360.365387 443.748962,335.317169 
	C446.371521,333.598297 448.272217,335.238953 450.182404,335.870605 
	C455.551514,337.646057 460.831024,339.692291 466.198273,341.473877 
	C468.835510,342.349243 470.383942,343.874329 470.865662,346.664337 
	C473.550751,362.216248 476.304352,377.756287 479.000549,393.306274 
	C479.077332,393.748993 478.774475,394.257507 478.385895,395.021912 
z"/>
<path fill="#000000" opacity="1.000000" stroke="none" 
	d="
M650.000000,720.166138 
	C512.887390,720.055176 376.274750,719.944824 239.662201,719.783508 
	C239.175232,719.782959 238.689148,719.045654 238.145096,718.605896 
	C241.934601,716.193176 761.104065,715.991699 765.664124,718.401855 
	C764.082581,720.938354 761.559753,720.118408 759.465027,720.121521 
	C723.143372,720.175415 686.821716,720.163269 650.000000,720.166138 
z"/>
<path fill="#000000" opacity="1.000000" stroke="none" 
	d="
M478.938629,367.789307 
	C476.366882,354.052277 473.886414,340.733398 471.242432,326.536621 
	C476.897980,328.369324 480.431854,331.864319 484.748932,333.743225 
	C495.844604,338.572266 502.223846,346.328400 503.092285,358.871033 
	C503.580841,365.927002 505.727386,372.890594 507.388824,379.833191 
	C508.190765,383.184174 507.225555,384.688477 503.899628,385.513275 
	C497.302979,387.149200 491.044128,389.854828 484.288422,392.867889 
	C481.586487,384.455170 481.103577,376.144348 478.938629,367.789307 
z"/>
<path fill="#000000" opacity="1.000000" stroke="none" 
	d="
M594.333618,364.178314 
	C592.737366,374.221405 591.174438,383.828491 589.476501,394.265869 
	C581.583069,390.877411 574.509155,387.335693 566.978210,384.970367 
	C564.920288,384.324005 565.458313,382.223236 565.742004,380.625183 
	C567.771423,369.194702 569.857422,357.774261 571.922058,346.350006 
	C572.264465,344.455200 573.005188,342.823975 574.962769,342.131836 
	C582.162720,339.586182 589.368347,337.056244 596.590515,334.574554 
	C597.134277,334.387695 597.824463,334.627075 599.193970,334.717926 
	C597.552734,344.586639 595.959839,354.164490 594.333618,364.178314 
z"/>
<path fill="#000000" opacity="1.000000" stroke="none" 
	d="
M541.728271,349.948120 
	C542.073547,344.547729 544.821411,341.545288 549.141602,339.206787 
	C554.986816,336.042786 560.503601,332.273224 566.173462,328.783295 
	C567.549011,327.936615 568.789185,326.683777 571.171997,327.071594 
	C571.050354,332.744171 569.376770,338.122284 568.358582,343.582184 
	C566.104370,355.669312 563.655090,367.721222 561.531189,379.830597 
	C560.980530,382.970245 560.035522,384.134216 556.685852,383.445679 
	C550.995544,382.275970 545.260559,381.187531 539.395569,381.261505 
	C536.148682,381.302429 535.491516,379.576630 536.120178,376.693024 
	C538.031067,367.928436 539.833008,359.140106 541.728271,349.948120 
z"/>
<path fill="#000000" opacity="1.000000" stroke="none" 
	d="
M547.556030,398.418091 
	C544.295898,398.105530 541.472168,397.554199 538.665588,397.630402 
	C533.768005,397.763367 533.458130,394.980530 533.811340,391.192566 
	C534.181885,387.218842 535.193298,384.620026 540.088257,384.979523 
	C560.053162,386.445679 578.664490,391.956604 595.542786,402.884888 
	C597.035400,403.851318 598.895874,404.492767 599.584900,406.652954 
	C597.523376,409.512085 594.137268,410.778564 591.389099,412.839630 
	C589.838074,414.002869 588.237122,413.229889 586.745483,412.317963 
	C574.793579,405.011047 561.849609,400.467865 547.556030,398.418091 
z"/>
<path fill="#000000" opacity="1.000000" stroke="none" 
	d="
M511.544189,753.048218 
	C508.720215,753.252930 506.288818,753.978088 503.635803,753.270752 
	C503.925262,746.331726 504.822052,739.440796 502.912811,732.149719 
	C508.524780,731.197876 514.003845,731.119202 519.039185,734.078003 
	C524.464966,737.266296 524.337097,744.702515 518.958557,749.309509 
	C516.908752,751.065308 514.441284,752.049866 511.544189,753.048218 
M517.841125,743.521423 
	C518.479980,738.982422 515.680542,734.582947 511.707092,734.688843 
	C507.270874,734.807129 509.348785,738.876038 508.529602,741.150879 
	C508.104248,742.332092 508.230377,743.776550 508.359100,745.077148 
	C508.542053,746.925842 507.346588,749.548035 509.713928,750.366882 
	C512.119080,751.198792 514.081482,749.335449 515.622620,747.577637 
	C516.470337,746.610657 516.969421,745.338074 517.841125,743.521423 
z"/>
<path fill="#000000" opacity="1.000000" stroke="none" 
	d="
M715.697754,745.697388 
	C715.483398,741.007751 716.430664,736.667542 714.334412,732.301392 
	C718.649414,731.311462 722.652649,731.364502 726.651855,732.541565 
	C730.321655,733.621704 733.561218,735.313110 734.152100,739.544922 
	C734.785522,744.082214 732.880005,747.672913 729.147522,750.178528 
	C725.032715,752.940918 720.441650,753.984863 715.258728,753.419983 
	C715.409058,750.927246 715.553345,748.534973 715.697754,745.697388 
M720.020081,746.979187 
	C720.108276,749.104797 720.270142,751.368103 723.327759,750.172852 
	C726.995178,748.739380 729.231689,745.905701 729.607422,741.965271 
	C729.941284,738.463318 727.499023,736.594299 724.767944,735.167542 
	C722.097046,733.772217 720.272522,734.215088 720.203491,737.687866 
	C720.147705,740.494812 720.086304,743.301697 720.020081,746.979187 
z"/>
<path fill="#000000" opacity="1.000000" stroke="none" 
	d="
M179.378723,752.896240 
	C175.393463,753.886841 175.946609,751.277832 175.848953,749.151794 
	C175.591522,743.546631 177.694489,737.953491 175.674927,732.032654 
	C180.648239,731.712158 185.833557,730.168579 189.263885,734.710388 
	C192.307785,738.740540 187.648071,741.144775 186.010666,744.254456 
	C187.276474,747.924072 191.738785,748.622620 193.393723,751.914612 
	C190.767014,754.627563 190.696411,754.637024 187.250000,751.734985 
	C185.272476,750.069885 183.333313,748.359192 181.340973,746.637939 
	C179.585815,748.702271 180.957245,751.010376 179.378723,752.896240 
M180.423218,740.832520 
	C180.486252,741.311951 180.388123,742.091125 180.637009,742.224976 
	C183.398544,743.710144 184.492538,741.508789 185.299820,739.685608 
	C186.178162,737.701904 185.643951,735.482849 183.432129,734.813232 
	C180.601303,733.956116 181.042770,736.654907 180.589020,738.200867 
	C180.409393,738.812927 180.476776,739.497498 180.423218,740.832520 
z"/>
<path fill="#000000" opacity="1.000000" stroke="none" 
	d="
M590.789978,738.796265 
	C594.881775,742.885498 593.426025,746.630310 590.459106,750.322815 
	C592.720154,752.349426 594.633545,754.491882 592.104309,757.488770 
	C590.438782,759.462219 584.204895,760.066162 582.274841,758.534729 
	C582.016785,758.329956 581.544006,758.015076 581.585510,757.868774 
	C583.042542,752.732056 579.856262,747.527954 581.469238,742.596741 
	C582.760315,738.649414 586.715942,738.517761 590.789978,738.796265 
M584.532532,743.060181 
	C584.537292,745.327881 585.233704,747.163391 587.576477,748.061829 
	C589.562805,746.898926 589.959045,745.307800 588.753174,743.536377 
	C587.830444,742.180969 586.629822,740.830444 584.532532,743.060181 
z"/>
<path fill="#000000" opacity="1.000000" stroke="none" 
	d="
M655.177734,746.583435 
	C654.880310,749.157898 655.692932,751.161987 656.181946,753.217773 
	C646.227234,753.868164 643.962280,753.771484 642.275330,747.090149 
	C641.405090,743.643188 642.535583,740.211182 646.088867,739.526611 
	C651.469910,738.489990 651.563232,735.410339 650.239929,731.369202 
	C653.635681,729.907288 655.313965,730.632446 655.268311,734.213440 
	C655.217651,738.189087 655.206177,742.165222 655.177734,746.583435 
M650.398315,749.206604 
	C650.789978,746.277649 652.023254,743.154053 648.669128,740.934326 
	C645.778748,742.615173 645.994629,745.111511 646.672485,747.488220 
	C647.066833,748.871094 647.556519,750.974792 650.398315,749.206604 
z"/>
<path fill="#000000" opacity="1.000000" stroke="none" 
	d="
M353.581635,752.762390 
	C348.776947,750.200562 347.727234,746.117371 348.084229,741.578674 
	C348.451019,736.915527 351.221527,734.061951 355.673157,732.751648 
	C358.694427,731.862305 361.677582,730.649902 364.905304,731.548889 
	C366.316650,731.942017 368.250427,732.388733 367.711060,734.310181 
	C367.130707,736.377686 365.304230,735.553589 363.951294,734.986633 
	C360.522064,733.549561 357.394104,733.799133 354.870605,736.681335 
	C352.799530,739.046875 351.829529,741.775513 352.919403,744.978821 
	C354.409607,749.358765 358.223480,751.279053 362.812469,750.074524 
	C364.342133,749.672974 365.608093,748.173706 367.452423,748.828308 
	C365.068359,753.369507 361.065216,754.569519 353.581635,752.762390 
z"/>
<path fill="#000000" opacity="1.000000" stroke="none" 
	d="
M286.791229,753.832275 
	C284.960541,753.700012 283.472473,753.384094 282.007385,753.468201 
	C277.852325,753.706909 275.903473,751.191956 275.005646,747.737183 
	C274.011475,743.911743 275.133331,740.539734 279.108856,739.284668 
	C283.361450,737.942200 285.108368,735.887634 282.509888,731.427307 
	C285.509491,730.421814 287.697968,729.788818 287.634430,733.956604 
	C287.537109,740.342590 286.394806,746.774658 288.314087,753.101562 
	C288.348846,753.216003 287.552765,753.582520 286.791229,753.832275 
M282.625732,741.627197 
	C279.907715,740.253052 279.332275,742.336365 279.196930,744.104187 
	C279.007446,746.579041 278.628967,749.477051 282.360077,750.285461 
	C284.252747,747.567200 284.002350,744.898621 282.625732,741.627197 
z"/>
<path fill="#000000" opacity="1.000000" stroke="none" 
	d="
M613.969666,740.331787 
	C616.808472,744.733521 612.902710,749.132446 615.301331,753.387939 
	C611.418518,754.282471 609.367126,753.936340 610.221924,749.480835 
	C610.714294,746.914185 612.258545,742.692627 608.622803,742.340637 
	C605.071899,741.996826 606.652588,746.383911 606.183899,748.748230 
	C605.843872,750.463867 606.372559,752.995361 603.780823,752.897888 
	C601.011047,752.793701 601.998962,750.214661 601.939697,748.569885 
	C601.827148,745.447998 601.907166,742.319214 601.907166,738.575134 
	C605.921997,739.550476 610.068054,736.344055 613.969666,740.331787 
z"/>
<path fill="#000000" opacity="1.000000" stroke="none" 
	d="
M331.473206,746.537109 
	C331.416809,749.043152 331.416809,751.150269 331.416809,753.459595 
	C328.402863,754.281738 326.440094,753.938782 327.145844,750.062378 
	C327.234924,749.573242 327.482697,749.093445 327.479736,748.610413 
	C327.464417,746.117676 328.940247,742.294434 325.308167,742.031128 
	C322.157867,741.802673 323.628632,745.622131 323.133728,747.668152 
	C322.941711,748.461792 323.074554,749.328247 322.965759,750.149109 
	C322.786743,751.499634 322.515808,752.951172 320.762482,752.935608 
	C318.890472,752.919067 318.894592,751.350586 318.840149,750.041626 
	C318.689392,746.416687 319.243927,742.783936 318.380737,739.197998 
	C327.617096,738.234497 332.449310,736.794006 331.473206,746.537109 
z"/>
<path fill="#000000" opacity="1.000000" stroke="none" 
	d="
M634.100037,744.033142 
	C633.519958,744.425781 633.210388,744.566162 632.951355,744.770630 
	C631.489075,745.924866 628.409973,745.792053 628.780090,748.328613 
	C629.243103,751.500977 632.319702,749.400635 634.613831,749.704956 
	C633.289062,753.029297 631.129944,753.948914 628.535278,753.491760 
	C625.292175,752.920227 624.187134,750.286621 623.445374,747.390442 
	C622.593567,744.064270 623.636169,741.490234 626.248657,739.475037 
	C628.151978,738.006836 630.329407,737.810486 632.318542,739.092834 
	C633.907166,740.117004 635.987915,741.246033 634.100037,744.033142 
z"/>
<path fill="#000000" opacity="1.000000" stroke="none" 
	d="
M692.339783,738.405640 
	C697.247375,738.201599 698.970520,741.127136 699.028564,744.934875 
	C699.091553,749.063965 697.038757,752.281372 692.844788,753.471436 
	C689.786011,754.339355 687.650757,752.646484 686.514587,750.010071 
	C685.046387,746.603516 685.161804,743.228088 688.029480,740.421997 
	C689.116699,739.358032 690.464111,738.736450 692.339783,738.405640 
M690.117676,743.555725 
	C690.008972,744.680115 689.590027,745.886841 689.861511,746.910400 
	C690.310120,748.601868 691.204224,751.146362 693.286377,750.049622 
	C695.867981,748.689941 695.016541,745.602417 694.298218,743.349609 
	C693.586121,741.116150 691.953552,740.673767 690.117676,743.555725 
z"/>
<path fill="#000000" opacity="1.000000" stroke="none" 
	d="
M748.704102,750.006470 
	C750.045776,750.521362 751.286682,749.343506 752.274414,750.470276 
	C749.390015,754.689941 745.206360,754.460571 742.950012,749.904907 
	C741.454346,746.885254 741.155945,743.827271 743.473083,741.006531 
	C745.198364,738.906372 747.345825,737.866943 750.090637,738.770203 
	C751.762634,739.320435 753.095703,740.343445 753.390198,742.167236 
	C753.714172,744.173096 751.786133,744.351868 750.697388,745.257690 
	C749.295532,746.423950 744.311584,746.002991 748.704102,750.006470 
z"/>
<path fill="#000000" opacity="1.000000" stroke="none" 
	d="
M376.336609,739.223755 
	C380.347015,738.121887 380.097717,740.626770 380.286865,743.082642 
	C380.473755,745.508911 379.006470,749.590332 382.624817,749.635315 
	C385.878510,749.675781 384.304382,745.683533 384.739166,743.436646 
	C385.058044,741.788696 384.103638,739.100525 386.780518,739.151367 
	C389.690430,739.206543 388.881470,741.949219 388.896088,743.803284 
	C388.906494,745.124939 388.538513,746.446655 388.510315,747.772034 
	C388.437103,751.214417 388.733093,754.267761 383.304565,753.619385 
	C378.717499,753.071472 376.668671,751.374451 376.612488,746.871460 
	C376.581757,744.404785 376.252563,741.941833 376.336609,739.223755 
z"/>
<path fill="#000000" opacity="1.000000" stroke="none" 
	d="
M206.708115,753.436584 
	C203.226227,753.630066 201.333786,751.887085 200.335464,749.216614 
	C198.969971,745.563843 199.786667,742.238403 203.014786,739.994629 
	C205.550247,738.232361 208.630417,737.210510 211.157837,739.872192 
	C213.848785,742.706238 213.869125,746.149292 211.943695,749.509705 
	C210.852737,751.413818 209.404861,752.988831 206.708115,753.436584 
M204.084579,745.495056 
	C204.264587,747.657349 204.237671,750.374207 207.243835,750.073181 
	C209.247040,749.872620 208.890472,747.466248 208.890717,745.863403 
	C208.890961,744.224060 208.982178,742.171936 207.011993,741.656311 
	C204.652771,741.038879 204.429443,743.067444 204.084579,745.495056 
z"/>
<path fill="#000000" opacity="1.000000" stroke="none" 
	d="
M255.858002,744.343872 
	C257.241180,740.332520 259.396118,737.815125 263.674561,738.723694 
	C265.523834,739.116333 267.111877,740.277771 267.369354,742.317627 
	C267.617462,744.283325 265.738983,744.556152 264.477783,745.217773 
	C263.191742,745.892395 261.650177,746.177917 260.917664,747.500610 
	C261.467926,750.921631 264.472931,749.318787 266.140594,750.308472 
	C263.798370,754.380432 260.046631,754.617004 257.447723,750.865051 
	C256.181030,749.036499 255.593979,746.985596 255.858002,744.343872 
z"/>
<path fill="#000000" opacity="1.000000" stroke="none" 
	d="
M226.599976,738.609924 
	C230.903030,737.839478 232.849899,739.731995 233.490051,743.442810 
	C234.221054,747.680237 232.878403,751.100708 229.016037,752.945923 
	C226.213211,754.284912 223.363190,753.599670 221.783173,750.633362 
	C219.924332,747.143738 219.909500,743.607605 222.839935,740.611938 
	C223.712585,739.719849 225.082855,739.314514 226.599976,738.609924 
M228.693497,749.762817 
	C230.176819,747.657959 230.087219,745.344177 229.099030,743.194763 
	C228.259598,741.368958 226.796646,740.810974 225.308334,742.756104 
	C223.285843,745.399414 224.611145,748.832886 228.693497,749.762817 
z"/>
<path fill="#000000" opacity="1.000000" stroke="none" 
	d="
M473.265289,741.506592 
	C473.429901,746.107849 468.712494,744.811035 466.981476,747.491943 
	C467.081299,751.032776 469.901917,750.269775 472.496796,749.831970 
	C470.277557,753.709290 467.625214,754.497192 464.909912,752.502319 
	C461.470917,749.975830 460.748199,744.114685 463.477783,740.889099 
	C466.329895,737.518738 469.334473,737.609863 473.265289,741.506592 
z"/>
<path fill="#000000" opacity="1.000000" stroke="none" 
	d="
M816.125183,753.424133 
	C810.046509,750.627014 808.527466,743.958252 812.759277,740.156250 
	C814.836304,738.290222 817.236572,737.732605 819.590149,739.318665 
	C822.001343,740.943298 823.258057,742.861816 819.700500,744.901489 
	C818.147766,745.791626 815.269470,745.778015 815.772400,748.557068 
	C816.253845,751.216980 819.323059,749.369141 820.736328,750.737854 
	C820.143921,753.059387 818.366821,753.340088 816.125183,753.424133 
z"/>
<path fill="#000000" opacity="1.000000" stroke="none" 
	d="
M426.016479,739.744385 
	C429.359283,737.811340 430.126434,739.485413 430.305298,742.423401 
	C430.464569,745.039734 429.076263,748.211121 432.623840,750.065918 
	C435.811188,748.200317 434.355042,745.057251 434.716278,742.479309 
	C434.942139,740.867737 434.611542,738.723694 437.118835,739.035828 
	C439.153625,739.289185 438.899780,741.155396 438.660583,742.634216 
	C438.087189,746.179382 438.868652,749.893860 437.746582,753.360291 
	C435.518402,753.360291 433.712433,753.442383 431.916504,753.343079 
	C428.271576,753.141663 426.564728,751.023499 426.498810,747.495117 
	C426.452484,745.016602 426.947235,742.504456 426.016479,739.744385 
z"/>
<path fill="#000000" opacity="1.000000" stroke="none" 
	d="
M556.524170,742.844360 
	C555.446228,742.700378 554.668518,742.535339 553.467102,742.280396 
	C554.651672,745.879333 562.406067,746.847473 557.393494,752.043640 
	C555.268188,754.246765 552.243896,754.746277 549.592102,752.262085 
	C550.248596,748.797546 552.924255,750.464355 555.565735,750.209595 
	C553.596313,748.790283 552.331848,748.044861 551.268188,747.078369 
	C548.976929,744.996216 549.277954,742.570068 551.047058,740.450195 
	C552.718689,738.446960 555.114136,738.124268 557.354370,739.414917 
	C559.665161,740.746155 558.866943,741.971130 556.524170,742.844360 
z"/>
<path fill="#000000" opacity="1.000000" stroke="none" 
	d="
M536.116821,753.419922 
	C531.004822,751.805542 530.355957,748.061401 530.800415,743.816345 
	C531.023865,741.681946 532.366028,740.163452 534.139099,739.140381 
	C536.848816,737.576782 539.235107,738.310730 541.199036,740.576538 
	C542.000488,741.501160 542.500183,742.696106 541.463989,743.692627 
	C538.538208,746.506104 537.994324,741.824280 535.959106,741.770142 
	C533.520813,747.025085 535.325012,750.133606 541.256287,750.266296 
	C540.586487,752.982422 538.630188,753.355347 536.116821,753.419922 
z"/>
<path fill="#000000" opacity="1.000000" stroke="none" 
	d="
M798.509460,743.232788 
	C799.551025,741.450256 799.835266,739.399414 802.042114,739.161072 
	C803.600403,740.019470 803.087219,741.138184 802.536560,742.165405 
	C801.441467,744.208191 800.346558,746.259033 799.103271,748.212158 
	C798.035645,749.889343 798.602722,753.222290 795.657715,752.949158 
	C793.253601,752.726135 793.030945,749.801514 792.064758,747.962341 
	C790.698792,745.362061 789.564880,742.639771 788.314636,739.932678 
	C791.565979,738.891479 791.565979,738.891479 796.007874,746.365356 
	C797.634338,746.134155 797.534668,744.430481 798.509460,743.232788 
z"/>
<path fill="#000000" opacity="1.000000" stroke="none" 
	d="
M417.031311,738.353760 
	C417.521454,739.148560 418.135345,740.019287 417.963013,740.222168 
	C414.836273,743.903625 415.881439,747.838745 417.207550,751.823120 
	C415.092804,753.789429 412.725647,753.787109 412.366302,750.946655 
	C411.759979,746.153687 410.456512,741.282654 411.913208,736.365906 
	C412.437195,734.597290 413.129883,733.304382 415.186523,733.547729 
	C416.911713,734.726685 415.743103,736.798950 417.031311,738.353760 
z"/>
<path fill="#000000" opacity="1.000000" stroke="none" 
	d="
M761.721008,749.610168 
	C761.622498,743.358459 762.239990,737.563293 761.475769,731.709351 
	C764.462341,730.175476 766.173523,730.780273 766.078735,734.160095 
	C765.981079,737.641479 765.550476,741.112122 765.343811,744.592163 
	C765.198181,747.044189 765.225037,749.498474 766.706238,751.715454 
	C763.830627,753.663269 762.070129,753.725220 761.721008,749.610168 
z"/>
<path fill="#000000" opacity="1.000000" stroke="none" 
	d="
M672.480835,746.593262 
	C672.848328,742.614624 670.260986,739.020264 672.716003,735.373413 
	C673.442444,734.294373 673.973145,733.518982 675.569824,733.679199 
	C676.930298,735.482361 675.841919,738.609070 678.781799,739.729309 
	C675.340210,743.630615 675.649170,747.481934 677.721741,751.463074 
	C676.844543,752.916687 675.481384,753.710571 674.019287,752.815002 
	C671.834167,751.476685 672.224731,749.136658 672.480835,746.593262 
z"/>
<path fill="#000000" opacity="1.000000" stroke="none" 
	d="
M399.432983,752.997437 
	C397.074005,751.694885 397.739532,749.692810 397.714355,747.966187 
	C397.635101,742.528992 397.685150,737.089905 397.685150,731.395020 
	C400.499146,730.349304 402.219879,730.920288 401.947266,734.304810 
	C401.496613,739.899597 400.517212,745.460388 402.160217,751.062256 
	C402.578003,752.486816 400.879364,752.676880 399.432983,752.997437 
z"/>
<path fill="#000000" opacity="1.000000" stroke="none" 
	d="
M241.736069,738.642578 
	C243.247101,736.931030 241.824524,733.519409 245.503143,733.719360 
	C247.122116,735.284729 245.479431,738.588867 248.776825,739.410339 
	C245.576630,743.447876 245.493454,747.492126 247.492630,751.874878 
	C244.414307,754.098938 242.852524,752.996094 242.708786,749.637390 
	C242.554810,746.039856 242.689713,742.437439 241.736069,738.642578 
z"/>
<path fill="#000000" opacity="1.000000" stroke="none" 
	d="
M838.006348,741.292725 
	C833.793884,742.607788 834.324524,745.836487 834.178467,748.814575 
	C834.095337,750.510193 834.635376,753.130981 831.934021,752.939636 
	C829.339783,752.755920 829.882874,750.219360 830.226074,748.548828 
	C830.854675,745.489197 829.970093,742.617615 829.434631,739.196045 
	C832.610596,739.312805 835.943054,736.675781 838.006348,741.292725 
z"/>
<path fill="#000000" opacity="1.000000" stroke="none" 
	d="
M447.708099,747.073547 
	C447.858368,744.173584 447.582794,741.749023 446.672272,739.164856 
	C449.993652,738.585388 452.953613,738.147339 455.906921,739.821655 
	C452.769440,743.913757 452.750610,743.909912 451.294128,751.000122 
	C451.041809,752.228333 450.789124,753.330078 449.222443,753.166992 
	C447.929169,753.032410 447.783630,751.986328 447.738251,750.977234 
	C447.686279,749.822693 447.714264,748.664551 447.708099,747.073547 
z"/>
<path fill="#000000" opacity="1.000000" stroke="none" 
	d="
M778.335938,738.484497 
	C781.275391,739.926025 780.029724,742.347656 780.165222,744.327637 
	C780.354675,747.096313 780.213013,749.887634 780.213013,752.860229 
	C777.315247,754.119324 775.744690,753.275269 775.788452,749.726318 
	C775.825134,746.755005 775.872620,743.769409 775.627258,740.814026 
	C775.463745,738.844788 776.557190,738.613770 778.335938,738.484497 
z"/>
<path fill="#000000" opacity="1.000000" stroke="none" 
	d="
M309.374329,752.826355 
	C305.719696,754.153870 304.579803,752.669556 304.705505,749.393799 
	C304.831818,746.102783 304.733276,742.803162 304.733276,739.006042 
	C307.242004,737.770813 309.023224,738.102905 309.172577,741.796875 
	C309.318054,745.395203 308.349579,749.040894 309.374329,752.826355 
z"/>
<path fill="#000000" opacity="1.000000" stroke="none" 
	d="
M567.373840,750.716553 
	C567.852844,746.565063 567.903687,742.801758 566.816406,739.001770 
	C570.173584,737.513916 571.645752,738.293457 571.422119,741.961365 
	C571.203003,745.555237 570.971985,749.176147 572.328979,752.864807 
	C570.012634,753.458618 567.820557,754.747681 567.373840,750.716553 
z"/>
</svg>